<svg width="61" height="66" viewBox="0 0 61 66" fill="none" xmlns="http://www.w3.org/2000/svg">
<g filter="url(#filter0_f)">
<path fill-rule="evenodd" clip-rule="evenodd" d="M30.2968 32.0571H30.0451H7.68523L10.626 9.99806C10.8127 8.59791 12.0177 7.54286 13.4301 7.54286H30.0451H30.2968H46.9119C48.3243 7.54286 49.5292 8.59791 49.7159 9.99806L52.6567 32.0571H30.2968ZM49.7159 56.0019C49.5292 57.4021 48.3243 58.4571 46.9119 58.4571H30.2968H30.0451H13.4301C12.0177 58.4571 10.8127 57.4021 10.626 56.0019L7.68523 33.9429H30.0451H30.2968H52.6567L49.7159 56.0019ZM54.5594 32.0571L51.5856 9.74819C51.2726 7.40614 49.2747 5.65714 46.9119 5.65714H30.2969H30.0451H13.4301C11.0663 5.65714 9.06937 7.40614 8.75728 9.74819L5.78257 32.0571L5.65717 33L5.78257 33.9428L8.75728 56.2518C9.06937 58.5938 11.0663 60.3428 13.4301 60.3428H30.0451H30.2969H46.9119C49.2747 60.3428 51.2726 58.5938 51.5856 56.2518L54.5594 33.9428L54.6857 33L54.5594 32.0571Z" fill="#0077FF"/>
</g>
<path fill-rule="evenodd" clip-rule="evenodd" d="M30.2968 32.0571H30.0451H7.68523L10.626 9.99806C10.8127 8.59791 12.0177 7.54286 13.4301 7.54286H30.0451H30.2968H46.9119C48.3243 7.54286 49.5292 8.59791 49.7159 9.99806L52.6567 32.0571H30.2968ZM49.7159 56.0019C49.5292 57.4021 48.3243 58.4571 46.9119 58.4571H30.2968H30.0451H13.4301C12.0177 58.4571 10.8127 57.4021 10.626 56.0019L7.68523 33.9429H30.0451H30.2968H52.6567L49.7159 56.0019ZM54.5594 32.0571L51.5856 9.74819C51.2726 7.40614 49.2747 5.65714 46.9119 5.65714H30.2969H30.0451H13.4301C11.0663 5.65714 9.06937 7.40614 8.75728 9.74819L5.78257 32.0571L5.65717 33L5.78257 33.9428L8.75728 56.2518C9.06937 58.5938 11.0663 60.3428 13.4301 60.3428H30.0451H30.2969H46.9119C49.2747 60.3428 51.2726 58.5938 51.5856 56.2518L54.5594 33.9428L54.6857 33L54.5594 32.0571Z" fill="#0077FF"/>
<defs>
<filter id="filter0_f" x="0.767166" y="0.767135" width="58.8086" height="64.4657" filterUnits="userSpaceOnUse" color-interpolation-filters="sRGB">
<feFlood flood-opacity="0" result="BackgroundImageFix"/>
<feBlend mode="normal" in="SourceGraphic" in2="BackgroundImageFix" result="shape"/>
<feGaussianBlur stdDeviation="2.445" result="effect1_foregroundBlur"/>
</filter>
</defs>
</svg>
