<svg width="58" height="63" viewBox="0 0 58 63" fill="none" xmlns="http://www.w3.org/2000/svg">
<g filter="url(#filter0_f)">
<path fill-rule="evenodd" clip-rule="evenodd" d="M28.9197 30.6H28.6794H7.3359L10.143 9.5436C10.3212 8.2071 11.4714 7.2 12.8196 7.2H28.6794H28.9197H44.7795C46.1277 7.2 47.2779 8.2071 47.4561 9.5436L50.2632 30.6H28.9197ZM47.4561 53.4564C47.2779 54.7929 46.1277 55.8 44.7795 55.8H28.9197H28.6794H12.8196C11.4714 55.8 10.3212 54.7929 10.143 53.4564L7.3359 32.4H28.6794H28.9197H50.2632L47.4561 53.4564ZM52.0794 30.6L49.2408 9.30509C48.942 7.06949 47.0349 5.39999 44.7795 5.39999H28.9197H28.6794H12.8196C10.5633 5.39999 8.65712 7.06949 8.35922 9.30509L5.51972 30.6L5.40002 31.5L5.51972 32.4L8.35922 53.6949C8.65712 55.9305 10.5633 57.6 12.8196 57.6H28.6794H28.9197H44.7795C47.0349 57.6 48.942 55.9305 49.2408 53.6949L52.0794 32.4L52.2 31.5L52.0794 30.6Z" fill="#D7D93B"/>
</g>
<path fill-rule="evenodd" clip-rule="evenodd" d="M28.9197 30.6H28.6794H7.3359L10.143 9.5436C10.3212 8.2071 11.4714 7.2 12.8196 7.2H28.6794H28.9197H44.7795C46.1277 7.2 47.2779 8.2071 47.4561 9.5436L50.2632 30.6H28.9197ZM47.4561 53.4564C47.2779 54.7929 46.1277 55.8 44.7795 55.8H28.9197H28.6794H12.8196C11.4714 55.8 10.3212 54.7929 10.143 53.4564L7.3359 32.4H28.6794H28.9197H50.2632L47.4561 53.4564ZM52.0794 30.6L49.2408 9.30509C48.942 7.06949 47.0349 5.39999 44.7795 5.39999H28.9197H28.6794H12.8196C10.5633 5.39999 8.65712 7.06949 8.35922 9.30509L5.51972 30.6L5.40002 31.5L5.51972 32.4L8.35922 53.6949C8.65712 55.9305 10.5633 57.6 12.8196 57.6H28.6794H28.9197H44.7795C47.0349 57.6 48.942 55.9305 49.2408 53.6949L52.0794 32.4L52.2 31.5L52.0794 30.6Z" fill="#D7D93B"/>
<defs>
<filter id="filter0_f" x="0.510025" y="0.509994" width="56.58" height="61.98" filterUnits="userSpaceOnUse" color-interpolation-filters="sRGB">
<feFlood flood-opacity="0" result="BackgroundImageFix"/>
<feBlend mode="normal" in="SourceGraphic" in2="BackgroundImageFix" result="shape"/>
<feGaussianBlur stdDeviation="2.445" result="effect1_foregroundBlur"/>
</filter>
</defs>
</svg>
